<?xml version="1.0" encoding="utf-8"?>
<!-- Generator: Adobe Illustrator 15.0.0, SVG Export Plug-In . SVG Version: 6.00 Build 0)  -->
<!DOCTYPE svg PUBLIC "-//W3C//DTD SVG 1.1//EN" "http://www.w3.org/Graphics/SVG/1.1/DTD/svg11.dtd">
<svg version="1.1" id="Layer_1" xmlns="http://www.w3.org/2000/svg" xmlns:xlink="http://www.w3.org/1999/xlink" x="0px" y="0px"
	 width="219.915px" height="210.974px" viewBox="0 0 219.915 210.974" enable-background="new 0 0 219.915 210.974"
	 xml:space="preserve">
<g>
	<g>
		<g>
			<g>
				<path fill="#27262D" d="M24.803,177.441c-0.572,1.426-1.131,2.834-1.676,4.225c-0.548,1.394-1.17,2.753-1.872,4.077
					c-0.701,1.326-1.519,2.55-2.454,3.672c-0.933,1.122-2.074,2.124-3.421,3.009c-1.884,1.249-3.687,1.681-5.409,1.297
					s-2.906-1.677-3.553-3.875c-0.394-1.178-0.629-2.392-0.71-3.643c-0.079-1.248-0.07-2.495,0.026-3.74
					c0.097-1.244,0.237-2.495,0.421-3.751c0.182-1.253,0.37-2.48,0.561-3.679l4.673-30.7c0.088-0.656,0.374-1.148,0.857-1.478
					c0.484-0.328,0.992-0.469,1.525-0.424c0.535,0.047,0.991,0.292,1.374,0.738c0.383,0.448,0.516,1.118,0.403,2.013
					c-0.756,4.851-1.522,9.744-2.293,14.686c-0.774,4.938-1.506,9.859-2.196,14.759c-0.181,0.846-0.37,1.938-0.57,3.285
					c-0.202,1.345-0.358,2.7-0.466,4.063c-0.111,1.363-0.125,2.671-0.046,3.918c0.079,1.25,0.342,2.226,0.788,2.929
					c0.526,0.867,1.325,1.141,2.396,0.822c1.18-0.392,2.225-1.12,3.137-2.181c0.913-1.06,1.722-2.238,2.429-3.535
					c0.705-1.295,1.316-2.638,1.832-4.026c0.517-1.389,1.022-2.645,1.517-3.765c0.127-0.368,0.377-0.578,0.75-0.629
					c0.375-0.05,0.748-0.013,1.116,0.114c0.369,0.127,0.647,0.353,0.839,0.679C24.97,176.627,24.976,177.009,24.803,177.441z"/>
				<path fill="#27262D" d="M30.991,191.47c-2.384,0.146-4.28-0.552-5.688-2.094c-1.408-1.539-2.359-3.494-2.854-5.86
					c-0.494-2.365-0.576-4.95-0.248-7.747c0.329-2.799,1.017-5.413,2.069-7.841c1.052-2.429,2.423-4.443,4.111-6.048
					c1.69-1.604,3.645-2.438,5.865-2.501c1.93-0.025,3.508,0.496,4.738,1.563c1.227,1.066,2.16,2.45,2.798,4.151
					c0.639,1.704,0.985,3.634,1.042,5.796c0.055,2.162-0.151,4.33-0.621,6.503c-0.138,0.722-0.074,1.417,0.191,2.085
					c0.266,0.668,0.713,0.958,1.349,0.873c0.978-0.132,1.898-0.487,2.756-1.074c0.961-0.713,1.7-1.634,2.225-2.76
					c0.522-1.125,1.025-2.278,1.514-3.456c0.191-0.317,0.341-0.633,0.445-0.939c0.104-0.306,0.225-0.616,0.359-0.928
					c0.127-0.369,0.374-0.591,0.744-0.671c0.37-0.078,0.728-0.038,1.072,0.12c0.343,0.161,0.611,0.401,0.802,0.728
					c0.189,0.325,0.196,0.708,0.021,1.141c-0.162,0.549-0.356,1.072-0.581,1.571c-0.599,1.663-1.274,3.192-2.022,4.581
					c-0.752,1.392-1.826,2.562-3.223,3.511c-1.935,1.313-3.817,1.918-5.647,1.813c-0.766-0.015-1.361,0.138-1.786,0.459
					c-0.427,0.321-0.893,0.779-1.398,1.374c-1.017,1.603-2.187,2.917-3.515,3.944C34.184,190.793,32.676,191.362,30.991,191.47z
					 M36.958,176.954c0.642-0.026,1.017-0.165,1.131-0.416c0.112-0.248,0.208-0.525,0.285-0.829
					c0.208-1.494,0.302-2.987,0.277-4.478c-0.023-1.494-0.173-2.82-0.446-3.984c-0.274-1.166-0.71-2.104-1.302-2.816
					c-0.594-0.712-1.329-1.066-2.209-1.066c-1.411-0.044-2.696,0.552-3.848,1.791c-1.151,1.24-2.105,2.776-2.856,4.603
					c-0.752,1.833-1.274,3.823-1.572,5.973c-0.299,2.15-0.341,4.12-0.13,5.909c0.211,1.788,0.685,3.249,1.423,4.382
					c0.738,1.131,1.798,1.604,3.179,1.418c0.98-0.131,1.878-0.528,2.699-1.197c0.817-0.666,1.54-1.51,2.164-2.534
					c0.234-0.438,0.274-0.795,0.122-1.07c-0.156-0.271-0.31-0.543-0.462-0.817c-0.569-0.743-0.899-1.462-0.991-2.153
					c-0.005-0.467,0.09-0.962,0.284-1.487c0.193-0.524,0.541-0.878,1.044-1.063C36.08,176.954,36.481,176.9,36.958,176.954z"/>
				<path fill="#27262D" d="M67.72,157.877c0.153-0.606,0.43-1.069,0.827-1.386c0.396-0.318,0.812-0.507,1.242-0.564
					c0.434-0.057,0.849,0.005,1.257,0.183c0.404,0.182,0.716,0.431,0.936,0.755c0.233,0.439,0.547,0.585,0.938,0.445
					c0.39-0.141,0.719-0.316,0.984-0.528c1.68-1.456,3.647-2.305,5.902-2.549c0.82,0.007,1.702,0.138,2.646,0.392
					c0.942,0.256,1.705,0.812,2.29,1.672c0.539,0.513,0.879,0.775,1.03,0.784c0.146,0.01,0.474-0.283,0.979-0.88
					c1.02-1.133,2.259-2.063,3.715-2.783c1.456-0.725,2.854-1.115,4.195-1.178c0.698-0.037,1.426,0.041,2.185,0.231
					c0.758,0.194,1.45,0.554,2.08,1.086c0.628,0.529,1.124,1.27,1.485,2.218c0.361,0.949,0.462,2.136,0.304,3.564
					c-0.167,1.371-0.387,2.689-0.656,3.957c-0.271,1.268-0.54,2.534-0.809,3.801c-0.271,1.268-0.505,2.574-0.706,3.921
					c-0.202,1.347-0.317,2.783-0.345,4.31c-0.088,1.538,0.143,2.487,0.691,2.853c0.546,0.367,1.229,0.319,2.047-0.142
					c0.874-0.469,1.735-1.377,2.58-2.72c0.845-1.345,1.657-2.832,2.436-4.46c0.636-1.374,1.193-2.68,1.673-3.918
					c0.478-1.235,0.901-2.23,1.27-2.984c0.126-0.368,0.376-0.578,0.75-0.628c0.375-0.051,0.747-0.013,1.115,0.113
					c0.369,0.128,0.651,0.369,0.843,0.722c0.194,0.355,0.205,0.752,0.029,1.184c-0.497,1.121-1.037,2.426-1.629,3.912
					c-0.593,1.486-1.263,2.954-2.004,4.4c-0.895,1.646-1.831,3.179-2.813,4.6c-0.982,1.421-2.1,2.48-3.354,3.179
					c-0.876,0.465-1.763,0.731-2.663,0.792c-0.9,0.065-1.729-0.103-2.486-0.5c-0.757-0.396-1.373-1.061-1.849-1.994
					c-0.477-0.931-0.702-2.16-0.672-3.689c0.013-1.642,0.103-3.164,0.267-4.565c0.164-1.397,0.364-2.744,0.601-4.037
					c0.235-1.292,0.49-2.571,0.76-3.839c0.269-1.268,0.512-2.619,0.731-4.054c0.113-0.896-0.075-1.544-0.569-1.947
					c-0.495-0.402-1.037-0.621-1.628-0.66c-0.945-0.05-1.836,0.188-2.674,0.71c-0.84,0.523-1.598,1.197-2.279,2.021
					c-0.681,0.826-1.3,1.771-1.861,2.843c-0.559,1.073-1.028,2.162-1.407,3.269c-0.713,2.558-1.322,5.336-1.826,8.333
					c-0.509,3.001-0.958,5.875-1.35,8.622c-0.081,0.716-0.351,1.222-0.81,1.516c-0.458,0.297-0.953,0.423-1.487,0.376
					c-0.534-0.046-1.013-0.229-1.438-0.556c-0.424-0.322-0.623-0.808-0.59-1.458c0.45-2.756,0.897-5.528,1.346-8.315
					c0.447-2.784,0.87-5.522,1.271-8.215c0.072-0.771,0.123-1.585,0.156-2.438c0.032-0.853,0.001-1.627-0.092-2.32
					c-0.092-0.688-0.286-1.249-0.576-1.681c-0.294-0.427-0.706-0.666-1.238-0.713c-1.413-0.041-2.705,0.496-3.872,1.62
					c-1.169,1.123-2.175,2.477-3.017,4.054c-0.844,1.579-1.52,3.208-2.029,4.889c-0.506,1.681-0.83,3.089-0.97,4.218l-1.598,11.03
					c-0.079,0.714-0.349,1.221-0.809,1.518c-0.459,0.294-0.939,0.418-1.444,0.369c-0.503-0.052-0.968-0.235-1.393-0.563
					c-0.425-0.322-0.621-0.81-0.592-1.458L67.72,157.877z"/>
				<path fill="#27262D" d="M110.969,176.781c-1.197-1.48-1.941-3.419-2.231-5.812c-0.293-2.393-0.203-4.883,0.273-7.467
					c0.35-1.747,0.867-3.472,1.546-5.177c0.681-1.702,1.501-3.235,2.46-4.595c0.963-1.359,2.068-2.505,3.321-3.435
					c1.251-0.929,2.598-1.492,4.039-1.687c2.525-0.396,4.447,0.151,5.761,1.646c1.312,1.496,1.75,3.444,1.312,5.848
					c-0.303,1.683-0.846,3.191-1.635,4.527c-0.788,1.336-1.756,2.522-2.907,3.557c-1.153,1.034-2.441,1.91-3.869,2.629
					s-2.9,1.327-4.415,1.824c-0.282,0.096-0.666,0.397-1.155,0.901c-0.49,0.506-0.692,1.075-0.607,1.708
					c0.144,0.627,0.288,1.164,0.437,1.612c0.148,0.451,0.397,0.885,0.747,1.308c0.656,0.965,1.473,1.59,2.45,1.869
					c0.974,0.28,2.002,0.29,3.08,0.025c1.596-0.331,3.055-1.038,4.375-2.125c1.319-1.086,2.483-2.354,3.49-3.811
					c1.006-1.454,1.889-2.963,2.645-4.53c0.759-1.568,1.399-3.002,1.929-4.304c0.182-0.377,0.461-0.604,0.832-0.684
					c0.37-0.08,0.726-0.055,1.064,0.075c0.34,0.132,0.607,0.375,0.802,0.729c0.194,0.358,0.202,0.751,0.027,1.184
					c-0.662,1.614-1.431,3.313-2.305,5.102c-0.875,1.788-1.895,3.479-3.058,5.071s-2.497,3.002-4.004,4.229
					c-1.506,1.23-3.226,2.061-5.161,2.496c-1.648,0.397-3.304,0.387-4.974-0.035C113.572,179.04,112.146,178.148,110.969,176.781z
					 M113.506,162.282c-0.197,0.731-0.168,1.358,0.078,1.88c0.246,0.525,0.85,0.664,1.813,0.418
					c2.004-0.798,3.865-1.882,5.586-3.257c1.719-1.373,2.747-3.226,3.08-5.558c0.157-1.017,0.02-1.921-0.408-2.715
					c-0.43-0.791-1.27-1.045-2.521-0.761c-1.812,0.479-3.367,1.671-4.664,3.572C115.17,157.766,114.185,159.906,113.506,162.282z"/>
				<path fill="#27262D" d="M133.822,148.565c0.08-0.714,0.391-1.239,0.933-1.576c0.54-0.336,1.081-0.468,1.618-0.393
					c0.537,0.073,0.985,0.365,1.35,0.874c0.36,0.51,0.43,1.247,0.208,2.214c-0.861,4.513-1.558,8.813-2.095,12.899
					c-0.535,4.088-1.159,8.29-1.866,12.604c-0.29,1.798,0.459,1.904,2.237,0.315c1.22-1.395,2.267-2.779,3.136-4.157
					c0.87-1.376,1.607-2.766,2.211-4.165c0.604-1.4,1.146-2.806,1.633-4.221c0.481-1.412,0.948-2.853,1.398-4.32
					c0.183-0.375,0.459-0.603,0.832-0.684c0.37-0.078,0.725-0.052,1.063,0.078c0.341,0.13,0.607,0.373,0.802,0.729
					s0.203,0.749,0.026,1.183c-0.54,1.653-1.071,3.265-1.594,4.831c-0.525,1.563-1.137,3.112-1.839,4.642
					c-0.703,1.531-1.54,3.05-2.509,4.558c-0.972,1.509-2.174,3.034-3.608,4.572c-0.97,1.071-1.921,1.961-2.851,2.67
					c-0.931,0.711-1.839,1.376-2.723,1.99c-0.883,0.619-1.784,1.209-2.707,1.771c-0.921,0.564-1.861,1.205-2.82,1.919
					c-1.06,0.846-2.227,1.866-3.503,3.063c-1.275,1.195-2.382,2.443-3.322,3.745c-0.49,0.709-0.776,1.423-0.856,2.136
					c-0.081,0.714-0.008,1.35,0.212,1.906c0.222,0.556,0.585,0.976,1.093,1.26c0.507,0.283,1.078,0.384,1.711,0.298
					c0.921-0.124,1.75-0.602,2.487-1.433c0.74-0.834,1.385-1.812,1.935-2.942c0.554-1.129,1.022-2.335,1.407-3.618
					c0.386-1.282,0.681-2.465,0.885-3.548c0.154-0.606,0.469-1.103,0.944-1.489c0.478-0.386,0.942-0.622,1.398-0.715
					c0.459-0.09,0.86-0.041,1.207,0.146c0.349,0.188,0.496,0.521,0.443,0.997c-0.319,1.564-0.713,3.216-1.185,4.949
					c-0.47,1.734-1.089,3.342-1.857,4.822c-0.769,1.479-1.722,2.781-2.864,3.901c-1.138,1.12-2.534,1.849-4.189,2.188
					c-1.366,0.302-2.597,0.188-3.694-0.338c-1.095-0.527-1.948-1.308-2.556-2.339c-0.608-1.032-0.916-2.236-0.923-3.613
					c-0.01-1.376,0.395-2.734,1.21-4.075c1.242-2.102,2.843-3.942,4.799-5.524c1.957-1.58,3.794-2.955,5.513-4.125
					c0.896-0.765,1.433-1.335,1.616-1.712c0.184-0.376,0.328-0.835,0.43-1.376L133.822,148.565z M134.792,137.443
					c-0.448,0.591-0.623,1.258-0.521,2.005c0.1,0.75,0.442,1.347,1.03,1.796c0.588,0.448,1.255,0.623,2.005,0.523
					c0.747-0.102,1.35-0.444,1.797-1.033c0.447-0.588,0.623-1.255,0.522-2.005c-0.102-0.747-0.445-1.346-1.032-1.796
					c-0.589-0.448-1.256-0.621-2.006-0.522C135.837,136.511,135.239,136.856,134.792,137.443z"/>
				<path fill="#27262D" d="M153.292,175.057c-2.385,0.143-4.279-0.556-5.689-2.094c-1.407-1.541-2.358-3.494-2.851-5.86
					c-0.494-2.365-0.577-4.947-0.25-7.749c0.327-2.799,1.018-5.413,2.07-7.84c1.052-2.428,2.421-4.442,4.111-6.047
					s3.643-2.438,5.863-2.501c1.932-0.024,3.509,0.494,4.74,1.561c1.226,1.065,2.158,2.451,2.797,4.152
					c0.639,1.703,0.986,3.637,1.042,5.798c0.057,2.159-0.152,4.328-0.62,6.501c-0.14,0.723-0.075,1.417,0.189,2.084
					c0.268,0.669,0.714,0.959,1.35,0.875c0.979-0.132,1.897-0.488,2.758-1.072c0.958-0.716,1.697-1.638,2.223-2.762
					c0.521-1.125,1.027-2.278,1.516-3.457c0.19-0.316,0.339-0.631,0.444-0.938c0.104-0.308,0.226-0.617,0.358-0.929
					c0.128-0.368,0.376-0.589,0.745-0.671c0.37-0.077,0.729-0.039,1.073,0.121c0.344,0.158,0.608,0.401,0.8,0.728
					c0.19,0.325,0.197,0.707,0.021,1.139c-0.16,0.551-0.353,1.074-0.577,1.572c-0.599,1.665-1.273,3.191-2.025,4.581
					c-0.752,1.392-1.824,2.562-3.223,3.51c-1.933,1.315-3.816,1.92-5.647,1.813c-0.764-0.015-1.359,0.139-1.783,0.459
					c-0.429,0.321-0.894,0.78-1.398,1.375c-1.018,1.602-2.188,2.918-3.515,3.945C156.483,174.378,154.976,174.95,153.292,175.057z
					 M159.258,160.539c0.64-0.027,1.018-0.166,1.129-0.415c0.113-0.248,0.209-0.524,0.285-0.83c0.21-1.492,0.303-2.984,0.278-4.478
					c-0.023-1.491-0.173-2.819-0.446-3.983s-0.709-2.104-1.302-2.815c-0.594-0.712-1.33-1.066-2.21-1.066
					c-1.413-0.045-2.696,0.551-3.847,1.791c-1.153,1.239-2.105,2.773-2.855,4.602c-0.751,1.833-1.276,3.823-1.572,5.971
					c-0.3,2.152-0.341,4.122-0.131,5.909c0.209,1.79,0.686,3.25,1.423,4.382c0.736,1.133,1.799,1.606,3.181,1.42
					c0.979-0.131,1.878-0.528,2.697-1.197c0.819-0.664,1.542-1.51,2.166-2.532c0.233-0.441,0.273-0.799,0.121-1.071
					c-0.156-0.272-0.31-0.544-0.463-0.816c-0.569-0.745-0.9-1.463-0.993-2.154c-0.003-0.469,0.092-0.966,0.286-1.488
					c0.191-0.523,0.539-0.877,1.042-1.064C158.376,160.54,158.78,160.487,159.258,160.539z"/>
				<path fill="#27262D" d="M175.633,137.766c0.698-0.913,1.544-1.263,2.541-1.045s1.602,0.695,1.818,1.427
					c0.063,0.463,0.052,1.033-0.033,1.718c-0.083,0.688-0.17,1.358-0.258,2.014c-0.026,0.238-0.029,0.547-0.007,0.925
					c0.021,0.379,0.335,0.645,0.94,0.796c0.846,0.181,1.899,0.495,3.161,0.94c1.261,0.445,2.271,0.881,3.034,1.306
					c0.816,0.42,1.404,0.869,1.762,1.347c0.357,0.479,0.564,1.041,0.622,1.677c0.055,0.638-0.009,1.362-0.192,2.179
					s-0.402,1.799-0.66,2.947c-0.263,1.089-0.558,2.172-0.884,3.24c-0.327,1.069-0.613,2.091-0.864,3.06
					c-0.251,0.975-0.45,1.88-0.601,2.721c-0.151,0.841-0.218,1.554-0.197,2.138c0.124,0.921,0.607,1.472,1.451,1.648
					c0.78,0.132,1.632-0.394,2.561-1.573c0.925-1.179,1.822-2.573,2.69-4.187c0.868-1.61,1.637-3.193,2.309-4.75
					c0.669-1.554,1.14-2.645,1.408-3.266c0.167-0.492,0.298-0.832,0.391-1.02c0.126-0.369,0.373-0.594,0.744-0.672
					c0.371-0.079,0.741-0.056,1.109,0.07c0.368,0.127,0.65,0.367,0.844,0.722c0.194,0.356,0.204,0.752,0.027,1.183
					c-0.1,0.134-0.191,0.321-0.275,0.565c-0.48,1.238-1.103,2.818-1.872,4.735c-0.768,1.923-1.69,3.775-2.77,5.559
					c-1.08,1.79-2.295,3.331-3.645,4.624c-1.352,1.297-2.822,1.904-4.417,1.823c-1.298-0.06-2.359-0.444-3.187-1.154
					c-0.831-0.71-1.346-1.607-1.549-2.694c-0.116-0.863-0.088-1.849,0.086-2.957c0.173-1.107,0.402-2.253,0.683-3.434
					c0.283-1.181,0.592-2.366,0.93-3.554c0.339-1.188,0.645-2.299,0.916-3.332c0.118-0.425,0.223-0.852,0.312-1.273
					c0.09-0.421,0.124-0.821,0.104-1.202c-0.023-0.376-0.144-0.74-0.367-1.091c-0.222-0.353-0.647-0.661-1.268-0.931
					c-0.442-0.233-0.894-0.421-1.352-0.566c-0.457-0.143-0.931-0.271-1.414-0.382c-0.303-0.076-0.693-0.022-1.165,0.158
					c-0.477,0.182-0.813,0.606-1.017,1.278c-0.899,3.346-1.988,6.598-3.262,9.758c-0.185,0.378-0.473,0.636-0.863,0.775
					c-0.393,0.141-0.757,0.146-1.097,0.016c-0.34-0.13-0.611-0.387-0.809-0.771c-0.198-0.383-0.191-0.882,0.021-1.498
					c0.577-1.365,1.147-2.908,1.708-4.626c0.561-1.714,1.049-3.422,1.468-5.119c0.194-0.731,0.271-1.137,0.232-1.22
					c-0.042-0.082-0.235-0.333-0.585-0.757c-0.367-0.536-0.599-1.18-0.699-1.927c-0.101-0.75-0.104-1.526-0.004-2.331
					c0.096-0.804,0.272-1.561,0.53-2.271C174.982,138.806,175.285,138.222,175.633,137.766z"/>
				<path fill="#27262D" d="M205.728,162.832c0.698-0.034,1.314,0.19,1.849,0.676c0.533,0.485,0.79,1.081,0.768,1.787
					c-0.024,0.706-0.261,1.324-0.718,1.854c-0.455,0.533-1.037,0.785-1.744,0.765c-0.708-0.024-1.326-0.265-1.854-0.72
					c-0.532-0.458-0.786-1.037-0.765-1.745c-0.035-0.698,0.189-1.313,0.678-1.85C204.425,163.066,205.021,162.809,205.728,162.832z
					 M214.189,111.224c-0.511,4.056-1.028,8.066-1.552,12.035c-0.521,3.969-1.037,7.979-1.549,12.034l-2.883,21.755
					c-0.088,0.656-0.332,1.129-0.733,1.416c-0.401,0.289-0.838,0.419-1.309,0.396c-0.475-0.024-0.896-0.217-1.267-0.577
					c-0.371-0.359-0.509-0.841-0.413-1.438c0.514-3.587,1.002-7.169,1.459-10.75c0.457-3.577,0.94-7.188,1.448-10.833
					c0.502-4.111,1.028-8.167,1.578-12.169c0.546-4,1.07-8.059,1.573-12.171c0.074-0.768,0.324-1.302,0.755-1.595
					c0.429-0.29,0.884-0.396,1.364-0.314c0.479,0.082,0.892,0.319,1.239,0.713C214.246,110.117,214.341,110.619,214.189,111.224z"/>
			</g>
		</g>
		<g>
			<g>
				<path fill="#27262D" d="M18.375,107.055c0.153-0.605,0.427-1.069,0.826-1.384c0.396-0.319,0.81-0.507,1.243-0.564
					c0.432-0.058,0.849,0.003,1.255,0.182c0.405,0.182,0.718,0.431,0.937,0.754c0.235,0.438,0.548,0.585,0.94,0.445
					c0.39-0.14,0.718-0.314,0.982-0.527c1.68-1.456,3.649-2.305,5.901-2.55c0.822,0.007,1.704,0.137,2.647,0.393
					c0.943,0.254,1.706,0.811,2.291,1.67c0.537,0.513,0.879,0.776,1.028,0.784c0.146,0.012,0.474-0.283,0.981-0.879
					c1.02-1.132,2.259-2.062,3.715-2.784c1.455-0.723,2.853-1.116,4.194-1.179c0.699-0.035,1.425,0.044,2.186,0.235
					c0.758,0.192,1.45,0.551,2.08,1.083c0.627,0.532,1.121,1.271,1.485,2.219c0.361,0.948,0.462,2.135,0.301,3.563
					c-0.167,1.371-0.386,2.69-0.655,3.957c-0.27,1.267-0.539,2.534-0.809,3.802c-0.27,1.268-0.504,2.573-0.705,3.92
					c-0.201,1.344-0.316,2.783-0.345,4.309c-0.087,1.537,0.143,2.488,0.69,2.854c0.546,0.366,1.231,0.318,2.048-0.144
					c0.873-0.469,1.734-1.377,2.58-2.72c0.844-1.345,1.656-2.832,2.436-4.46c0.636-1.375,1.192-2.679,1.673-3.918
					c0.477-1.235,0.901-2.231,1.268-2.984c0.127-0.368,0.375-0.578,0.751-0.628c0.375-0.049,0.746-0.013,1.115,0.114
					c0.369,0.126,0.651,0.368,0.844,0.722c0.194,0.358,0.203,0.752,0.026,1.186c-0.493,1.121-1.037,2.424-1.629,3.91
					c-0.591,1.487-1.26,2.954-2.002,4.402c-0.893,1.645-1.83,3.177-2.811,4.598c-0.982,1.422-2.101,2.48-3.356,3.176
					c-0.874,0.469-1.762,0.735-2.662,0.798c-0.901,0.063-1.728-0.105-2.485-0.503c-0.757-0.396-1.374-1.06-1.851-1.993
					c-0.477-0.932-0.7-2.163-0.671-3.69c0.015-1.645,0.104-3.164,0.267-4.565c0.163-1.399,0.364-2.745,0.601-4.037
					c0.236-1.292,0.49-2.572,0.76-3.84c0.271-1.266,0.513-2.617,0.732-4.054c0.113-0.896-0.077-1.543-0.571-1.946
					c-0.492-0.401-1.035-0.623-1.628-0.662c-0.944-0.049-1.834,0.189-2.672,0.711c-0.84,0.524-1.599,1.197-2.279,2.021
					c-0.682,0.825-1.302,1.772-1.861,2.844c-0.561,1.071-1.028,2.16-1.409,3.266c-0.712,2.557-1.322,5.335-1.828,8.334
					c-0.505,2.999-0.955,5.874-1.347,8.622c-0.08,0.714-0.35,1.221-0.808,1.515c-0.459,0.299-0.957,0.424-1.488,0.376
					c-0.534-0.044-1.014-0.229-1.439-0.554c-0.424-0.325-0.622-0.81-0.591-1.461c0.449-2.754,0.9-5.526,1.347-8.313
					c0.446-2.785,0.871-5.524,1.271-8.215c0.072-0.771,0.123-1.585,0.158-2.44c0.03-0.854,0-1.627-0.093-2.317
					c-0.092-0.692-0.286-1.25-0.578-1.682c-0.292-0.429-0.705-0.666-1.238-0.712c-1.413-0.044-2.703,0.495-3.872,1.619
					c-1.168,1.123-2.174,2.476-3.018,4.054c-0.844,1.578-1.519,3.208-2.025,4.887c-0.508,1.682-0.832,3.088-0.972,4.22
					l-1.598,11.029c-0.079,0.713-0.35,1.221-0.808,1.515c-0.459,0.297-0.942,0.42-1.444,0.371c-0.504-0.051-0.968-0.237-1.396-0.56
					c-0.421-0.326-0.62-0.812-0.589-1.462L18.375,107.055z"/>
				<path fill="#27262D" d="M61.621,125.959c-1.196-1.48-1.938-3.418-2.23-5.813c-0.292-2.393-0.202-4.882,0.273-7.464
					c0.352-1.749,0.867-3.473,1.547-5.176c0.679-1.703,1.5-3.235,2.462-4.594c0.959-1.36,2.066-2.506,3.319-3.437
					c1.251-0.929,2.598-1.492,4.038-1.685c2.525-0.397,4.445,0.15,5.761,1.646c1.314,1.494,1.75,3.442,1.314,5.846
					c-0.304,1.682-0.848,3.191-1.636,4.528c-0.789,1.338-1.758,2.522-2.91,3.555c-1.15,1.035-2.439,1.912-3.865,2.629
					c-1.431,0.719-2.901,1.328-4.418,1.824c-0.28,0.097-0.664,0.397-1.152,0.901c-0.489,0.506-0.691,1.077-0.606,1.709
					c0.142,0.626,0.289,1.163,0.436,1.611c0.148,0.45,0.396,0.886,0.748,1.309c0.656,0.964,1.474,1.59,2.449,1.867
					c0.975,0.281,2.001,0.291,3.082,0.028c1.595-0.333,3.054-1.04,4.374-2.126c1.319-1.085,2.482-2.355,3.489-3.81
					c1.007-1.455,1.888-2.964,2.646-4.532c0.757-1.568,1.4-3.002,1.929-4.304c0.182-0.376,0.459-0.604,0.832-0.684
					c0.37-0.079,0.725-0.054,1.063,0.077c0.342,0.131,0.607,0.375,0.802,0.728c0.193,0.355,0.202,0.75,0.027,1.184
					c-0.663,1.615-1.433,3.314-2.305,5.102c-0.875,1.788-1.893,3.478-3.057,5.07c-1.165,1.593-2.499,3.004-4.005,4.229
					c-1.505,1.229-3.227,2.061-5.16,2.495c-1.646,0.396-3.305,0.388-4.972-0.034C64.224,128.219,62.799,127.327,61.621,125.959z
					 M64.161,111.462c-0.197,0.73-0.171,1.357,0.077,1.88c0.245,0.524,0.851,0.665,1.813,0.416c2.004-0.798,3.866-1.882,5.588-3.256
					c1.719-1.374,2.744-3.227,3.077-5.557c0.157-1.017,0.021-1.922-0.408-2.716c-0.427-0.792-1.268-1.046-2.519-0.76
					c-1.813,0.478-3.368,1.668-4.667,3.571C65.825,106.945,64.836,109.085,64.161,111.462z"/>
				<path fill="#27262D" d="M85.347,92.44c0.696-0.915,1.546-1.263,2.542-1.044c0.996,0.216,1.601,0.695,1.818,1.425
					c0.061,0.462,0.05,1.035-0.032,1.719c-0.085,0.687-0.17,1.358-0.258,2.013c-0.027,0.238-0.03,0.547-0.007,0.924
					c0.021,0.38,0.335,0.646,0.942,0.797c0.843,0.179,1.898,0.493,3.159,0.939c1.261,0.447,2.273,0.883,3.032,1.308
					c0.818,0.419,1.406,0.866,1.764,1.347c0.357,0.479,0.565,1.039,0.621,1.674c0.055,0.639-0.008,1.364-0.192,2.18
					c-0.185,0.816-0.404,1.8-0.659,2.947c-0.264,1.091-0.559,2.171-0.884,3.241c-0.327,1.068-0.614,2.09-0.864,3.061
					c-0.251,0.972-0.452,1.877-0.604,2.719c-0.15,0.84-0.217,1.553-0.197,2.135c0.125,0.923,0.607,1.475,1.454,1.653
					c0.779,0.13,1.632-0.396,2.559-1.575c0.926-1.179,1.822-2.575,2.691-4.187c0.867-1.611,1.639-3.194,2.309-4.749
					c0.67-1.554,1.14-2.645,1.407-3.268c0.169-0.49,0.299-0.831,0.392-1.019c0.125-0.37,0.374-0.592,0.745-0.673
					c0.371-0.077,0.742-0.055,1.109,0.072c0.369,0.128,0.65,0.367,0.845,0.722c0.192,0.357,0.202,0.75,0.028,1.184
					c-0.102,0.132-0.194,0.321-0.278,0.565c-0.48,1.238-1.102,2.815-1.869,4.734c-0.769,1.922-1.693,3.775-2.771,5.561
					c-1.081,1.787-2.294,3.328-3.645,4.624c-1.351,1.295-2.821,1.902-4.417,1.821c-1.297-0.059-2.36-0.442-3.187-1.153
					c-0.829-0.709-1.346-1.607-1.549-2.694c-0.117-0.865-0.087-1.85,0.085-2.958c0.173-1.106,0.402-2.251,0.683-3.433
					c0.28-1.181,0.59-2.365,0.931-3.554c0.337-1.188,0.643-2.299,0.914-3.332c0.121-0.426,0.225-0.851,0.314-1.274
					c0.089-0.421,0.123-0.821,0.101-1.201c-0.02-0.379-0.143-0.743-0.366-1.092c-0.224-0.352-0.646-0.661-1.267-0.931
					c-0.441-0.233-0.893-0.421-1.352-0.565c-0.459-0.144-0.93-0.272-1.413-0.382c-0.305-0.077-0.693-0.024-1.167,0.157
					c-0.474,0.182-0.812,0.608-1.014,1.278c-0.901,3.345-1.987,6.597-3.265,9.76c-0.182,0.375-0.47,0.633-0.862,0.773
					c-0.392,0.143-0.759,0.147-1.097,0.017c-0.341-0.132-0.61-0.386-0.808-0.771c-0.198-0.383-0.192-0.883,0.019-1.497
					c0.578-1.366,1.15-2.909,1.71-4.625c0.56-1.716,1.049-3.423,1.466-5.121c0.195-0.729,0.273-1.136,0.232-1.219
					c-0.041-0.083-0.237-0.333-0.585-0.756c-0.365-0.536-0.598-1.18-0.699-1.929c-0.099-0.748-0.103-1.525-0.003-2.33
					c0.094-0.804,0.274-1.56,0.53-2.27C84.696,93.479,84.998,92.897,85.347,92.44z"/>
				<path fill="#27262D" d="M108.002,119.735c-1.196-1.479-1.938-3.418-2.23-5.812c-0.292-2.392-0.203-4.883,0.274-7.467
					c0.35-1.745,0.866-3.472,1.546-5.175c0.681-1.705,1.5-3.236,2.461-4.596c0.959-1.36,2.067-2.503,3.321-3.436
					c1.251-0.929,2.597-1.492,4.038-1.684c2.525-0.397,4.444,0.149,5.759,1.643c1.315,1.496,1.75,3.446,1.313,5.848
					c-0.302,1.683-0.847,3.191-1.633,4.529c-0.789,1.334-1.76,2.52-2.91,3.554c-1.149,1.034-2.438,1.912-3.867,2.63
					c-1.429,0.719-2.898,1.328-4.416,1.824c-0.28,0.097-0.666,0.397-1.153,0.901c-0.49,0.505-0.69,1.077-0.606,1.709
					c0.143,0.626,0.289,1.163,0.436,1.612c0.149,0.45,0.396,0.886,0.749,1.306c0.655,0.967,1.472,1.591,2.448,1.87
					c0.976,0.282,2.003,0.289,3.082,0.025c1.595-0.328,3.055-1.04,4.375-2.126c1.319-1.083,2.482-2.355,3.488-3.808
					c1.006-1.454,1.89-2.967,2.645-4.534c0.758-1.564,1.401-3,1.931-4.303c0.182-0.376,0.459-0.604,0.83-0.683
					c0.369-0.079,0.726-0.053,1.065,0.077c0.338,0.129,0.605,0.373,0.801,0.728c0.193,0.355,0.202,0.75,0.028,1.183
					c-0.664,1.613-1.433,3.314-2.307,5.103c-0.873,1.786-1.893,3.477-3.055,5.07c-1.164,1.592-2.5,3.002-4.007,4.229
					c-1.504,1.229-3.225,2.059-5.16,2.495c-1.647,0.397-3.304,0.386-4.973-0.034C110.605,121.994,109.181,121.1,108.002,119.735z
					 M110.542,105.238c-0.197,0.729-0.17,1.354,0.075,1.879c0.247,0.524,0.852,0.663,1.815,0.416
					c2.005-0.796,3.865-1.883,5.588-3.257c1.719-1.374,2.744-3.226,3.078-5.556c0.155-1.017,0.019-1.923-0.409-2.715
					c-0.428-0.793-1.269-1.045-2.519-0.763c-1.813,0.479-3.369,1.67-4.665,3.572C112.207,100.72,111.22,102.86,110.542,105.238z"/>
				<path fill="#27262D" d="M131.136,116.542c-1.195-1.481-1.938-3.418-2.229-5.812c-0.292-2.394-0.202-4.881,0.273-7.467
					c0.35-1.747,0.867-3.472,1.547-5.176s1.5-3.235,2.462-4.594c0.958-1.36,2.064-2.504,3.318-3.436
					c1.251-0.929,2.599-1.491,4.038-1.685c1.145-0.211,2.281-0.145,3.414,0.201c1.129,0.347,2.057,1.03,2.78,2.044
					c1.363,1.871,1.514,4.313,0.454,7.326c-0.146,0.665-0.449,1.13-0.91,1.396c-0.464,0.269-0.918,0.375-1.364,0.315
					c-0.449-0.056-0.817-0.286-1.104-0.686c-0.289-0.401-0.302-0.94-0.043-1.622c0.203-0.67,0.383-1.4,0.544-2.183
					c0.158-0.782,0.047-1.499-0.334-2.152c-0.309-0.544-0.704-0.873-1.188-0.984c-0.483-0.111-0.98-0.103-1.49,0.023
					c-0.965,0.25-1.881,0.737-2.748,1.469c-0.869,0.731-1.644,1.627-2.322,2.686c-0.68,1.058-1.271,2.224-1.775,3.49
					c-0.502,1.27-0.872,2.566-1.103,3.886c-0.429,2.052-0.593,4.007-0.488,5.868c0.104,1.864,0.551,3.355,1.35,4.48
					c0.656,0.967,1.473,1.592,2.447,1.869c0.975,0.28,2.003,0.289,3.083,0.026c1.594-0.332,3.053-1.039,4.374-2.125
					c1.319-1.087,2.482-2.356,3.49-3.812c1.005-1.453,1.887-2.962,2.644-4.53c0.756-1.567,1.401-3.003,1.929-4.305
					c0.183-0.376,0.46-0.601,0.832-0.682c0.371-0.079,0.724-0.053,1.063,0.077c0.342,0.13,0.608,0.375,0.804,0.728
					c0.192,0.356,0.202,0.752,0.026,1.184c-0.663,1.613-1.432,3.314-2.306,5.102c-0.875,1.786-1.892,3.478-3.058,5.07
					c-1.161,1.593-2.497,3.003-4.004,4.23c-1.505,1.229-3.227,2.059-5.161,2.495c-1.646,0.397-3.304,0.386-4.971-0.035
					C133.741,118.801,132.317,117.909,131.136,116.542z"/>
				<path fill="#27262D" d="M151.981,107.721c-0.292-2.393-0.204-4.881,0.271-7.466c0.353-1.746,0.867-3.473,1.549-5.176
					c0.679-1.703,1.5-3.235,2.462-4.595c0.959-1.361,2.065-2.503,3.319-3.435c1.251-0.929,2.598-1.492,4.038-1.685
					c2.525-0.397,4.445,0.151,5.76,1.646c1.313,1.493,1.751,3.444,1.312,5.847c-0.3,1.681-0.846,3.191-1.633,4.527
					c-0.788,1.336-1.759,2.522-2.908,3.557c-1.15,1.033-2.441,1.91-3.868,2.627c-1.428,0.721-2.899,1.329-4.416,1.825
					c-0.281,0.097-0.664,0.397-1.153,0.902c-0.491,0.506-0.692,1.075-0.606,1.708c0.142,0.625,0.289,1.163,0.437,1.613
					c0.147,0.448,0.396,0.883,0.746,1.305c0.658,0.968,1.474,1.593,2.45,1.871c0.975,0.279,2.002,0.288,3.08,0.024
					c1.597-0.329,3.056-1.038,4.376-2.125c1.317-1.084,2.482-2.355,3.489-3.809c1.006-1.454,1.888-2.964,2.645-4.532
					c0.757-1.566,1.4-3.002,1.929-4.303c0.184-0.375,0.461-0.604,0.832-0.684c0.369-0.079,0.725-0.051,1.064,0.078
					c0.34,0.129,0.607,0.373,0.803,0.727c0.192,0.356,0.201,0.751,0.026,1.185c-0.664,1.614-1.433,3.313-2.305,5.101
					c-0.876,1.787-1.892,3.478-3.058,5.069c-1.164,1.594-2.499,3.005-4.005,4.231c-1.504,1.228-3.227,2.06-5.16,2.495
					c-1.648,0.397-3.305,0.385-4.972-0.037c-1.67-0.419-3.094-1.313-4.273-2.679C153.015,112.054,152.27,110.115,151.981,107.721z
					 M156.826,100.915c0.247,0.526,0.85,0.665,1.813,0.417c2.005-0.796,3.867-1.881,5.587-3.255c1.722-1.375,2.747-3.226,3.08-5.56
					c0.155-1.017,0.019-1.919-0.409-2.713c-0.43-0.792-1.27-1.045-2.52-0.761c-1.813,0.477-3.369,1.668-4.666,3.572
					s-2.285,4.043-2.961,6.42C156.554,99.764,156.58,100.393,156.826,100.915z M160.156,77.916c0.187,0.502,0.499,0.871,0.941,1.104
					c0.441,0.235,0.917,0.287,1.429,0.16c0.511-0.125,0.953-0.537,1.33-1.233l6.642-11.443c0.382-0.636,0.49-1.252,0.323-1.845
					c-0.168-0.592-0.477-1.036-0.926-1.328c-0.449-0.292-0.971-0.353-1.564-0.185c-0.592,0.167-1.124,0.692-1.591,1.577
					l-6.37,11.493C160.042,76.845,159.972,77.411,160.156,77.916z"/>
				<path fill="#27262D" d="M174.424,100.355l7.375-19.718c0.169-0.491,0.491-0.826,0.966-1.008
					c0.473-0.181,0.953-0.201,1.442-0.062c0.488,0.142,0.894,0.438,1.219,0.891c0.323,0.457,0.447,1.04,0.366,1.754
					c-0.141,1.133-0.222,2.171-0.242,3.11c-0.02,0.941,0.003,1.876,0.069,2.805c0.086,1.511,0.367,2.955,0.844,4.327
					c0.478,1.373,0.969,2.742,1.478,4.11c0.504,1.368,0.92,2.718,1.244,4.054c0.326,1.333,0.411,2.714,0.249,4.143
					c-0.076,0.305,0.005,0.586,0.246,0.845c0.24,0.263,0.567,0.188,0.981-0.219c1.006-1.247,1.855-2.564,2.548-3.946
					c0.694-1.383,1.35-2.82,1.973-4.311c0.224-0.499,0.424-0.979,0.597-1.443c0.173-0.462,0.35-0.881,0.535-1.258
					c0.127-0.369,0.375-0.579,0.75-0.629c0.376-0.051,0.731-0.01,1.072,0.12c0.339,0.13,0.604,0.358,0.795,0.685
					c0.189,0.327,0.196,0.706,0.022,1.14l-0.76,2.213c-0.52,1.359-1.141,2.746-1.859,4.161c-0.719,1.417-1.536,2.757-2.448,4.022
					c-0.916,1.266-1.93,2.444-3.045,3.53c-1.115,1.087-2.327,1.985-3.641,2.686c-0.982,0.544-2.071,0.938-3.269,1.188
					c-1.199,0.249-2.374,0.334-3.528,0.252c-1.154-0.077-2.2-0.349-3.142-0.808c-0.941-0.46-1.676-1.122-2.201-1.99
					c-0.299-0.489-0.408-0.971-0.328-1.452c0.081-0.48,0.283-0.844,0.602-1.093c0.319-0.247,0.695-0.386,1.133-0.415
					c0.435-0.029,0.881,0.132,1.339,0.478c1.214,1.188,2.488,1.632,3.827,1.335c1.338-0.298,2.39-1.082,3.156-2.359
					c0.617-1.079,0.905-2.201,0.868-3.369c-0.04-1.167-0.245-2.371-0.618-3.612c-0.372-1.238-0.829-2.466-1.373-3.684
					c-0.547-1.215-1.017-2.441-1.417-3.68c-0.12-0.452-0.41-0.648-0.871-0.585c-0.461,0.061-0.778,0.311-0.955,0.743l-3.073,7.886
					c-0.22,0.558-0.525,0.906-0.915,1.047c-0.393,0.141-0.758,0.145-1.098,0.015s-0.621-0.37-0.845-0.723
					C174.271,101.184,174.248,100.791,174.424,100.355z"/>
			</g>
		</g>
		<g>
			<path fill="#27262D" d="M85.844,34.232c0.165-0.959,0.335-2.082,0.516-3.368c0.179-1.283,0.382-2.6,0.611-3.951
				c0.23-1.35,0.477-2.671,0.743-3.967c0.268-1.296,0.567-2.437,0.904-3.42c0.547-1.597,1.169-2.97,1.866-4.12
				c0.695-1.148,1.425-2.152,2.188-3.018c1.285-1.345,2.66-2.336,4.131-2.973c1.466-0.636,2.928-0.994,4.382-1.072
				c1.858-0.132,3.459,0.123,4.808,0.761c1.345,0.642,2.397,1.481,3.152,2.522c0.754,1.042,1.206,2.212,1.35,3.512
				c0.145,1.3-0.021,2.567-0.5,3.805c-0.479,1.237-1.283,2.34-2.413,3.313c-1.131,0.973-2.577,1.664-4.338,2.077
				c-0.288,0.04-0.706,0.081-1.258,0.125c-0.552,0.046-1.13,0.096-1.74,0.146c-0.608,0.054-1.235,0.078-1.88,0.077
				c-0.645-0.001-1.229,0.004-1.756,0.016c-2.983,0.048-4.762,1.637-5.34,4.76c-0.188,0.789-0.313,1.496-0.376,2.118
				c-0.062,0.625-0.184,1.358-0.364,2.203c-0.835,5.565-1.616,11.12-2.335,16.668c-0.721,5.549-1.734,11.106-3.037,16.676
				c-0.555,2.419-1.446,4.854-2.67,7.304c-1.225,2.45-2.736,4.617-4.536,6.5c-1.798,1.883-3.857,3.346-6.18,4.391
				c-2.324,1.043-4.833,1.336-7.533,0.878c-1.066-0.091-1.843-0.412-2.327-0.962c-0.484-0.55-0.72-1.105-0.707-1.664
				c0.014-0.558,0.197-1.054,0.549-1.481c0.353-0.428,0.834-0.565,1.439-0.413c2.346,0.449,4.464,0.296,6.357-0.458
				c1.892-0.75,3.574-1.871,5.044-3.357c1.473-1.487,2.72-3.208,3.748-5.165c1.029-1.955,1.789-3.933,2.282-5.933
				c1.378-5.461,2.393-10.886,3.045-16.28C84.326,45.091,85.05,39.673,85.844,34.232z M85.533,20.118
				c0.361,0.069,0.644,0.323,0.85,0.764c0.205,0.442,0.286,0.916,0.235,1.419c-0.05,0.507-0.208,0.966-0.474,1.384
				c-0.268,0.417-0.701,0.577-1.299,0.482c-1.946-0.091-3.805-0.179-5.575-0.264c-1.77-0.084-3.583-0.06-5.441,0.071
				c-2.26,0.186-4.487,0.632-6.679,1.334c-2.191,0.707-3.775,1.798-4.749,3.276c-0.774,1.219-1.307,2.492-1.598,3.819
				c-0.292,1.33-0.351,2.626-0.18,3.894c0.232,1.728,0.828,3.115,1.789,4.156c0.96,1.045,2.06,1.704,3.298,1.977
				c1.238,0.273,2.51,0.146,3.819-0.381c1.304-0.526,2.424-1.47,3.357-2.824c0.406-0.465,0.877-0.675,1.41-0.63
				c0.533,0.047,0.982,0.235,1.351,0.566c0.366,0.334,0.588,0.773,0.66,1.319c0.076,0.548-0.118,1.086-0.575,1.615
				c-1.626,1.861-3.447,3.131-5.466,3.811c-2.02,0.683-3.967,0.812-5.839,0.389c-1.876-0.422-3.542-1.371-4.999-2.846
				s-2.444-3.467-2.956-5.979c-0.378-1.94-0.353-3.923,0.081-5.945c0.43-2.021,1.294-3.882,2.592-5.58
				c0.748-0.979,1.648-1.805,2.701-2.473c1.054-0.67,2.208-1.25,3.46-1.739c1.252-0.49,2.564-0.873,3.935-1.144
				c1.371-0.272,2.693-0.464,3.968-0.577c2.254-0.242,4.383-0.309,6.391-0.198C81.609,19.927,83.586,20.027,85.533,20.118z
				 M95.093,20.592c0.477,0.056,1.092,0.061,1.85,0.018c0.755-0.043,1.525-0.088,2.311-0.136c0.786-0.046,1.508-0.114,2.171-0.202
				c0.661-0.089,1.166-0.158,1.511-0.202c1.474-0.375,2.504-0.997,3.092-1.868c0.587-0.87,0.793-1.731,0.62-2.588
				c-0.173-0.855-0.67-1.609-1.49-2.261c-0.821-0.652-1.869-0.922-3.143-0.811c-0.814,0.052-1.677,0.284-2.587,0.699
				c-0.914,0.416-1.807,1.065-2.686,1.944c-0.936,0.887-1.73,1.96-2.382,3.22c-0.292,0.451-0.462,0.928-0.512,1.432
				C93.799,20.342,94.214,20.593,95.093,20.592z"/>
			<path fill="#27262D" d="M100.063,68.11c-1.196-1.479-1.938-3.417-2.23-5.812c-0.292-2.392-0.202-4.881,0.274-7.466
				c0.35-1.747,0.867-3.472,1.546-5.176c0.681-1.702,1.502-3.234,2.462-4.594c0.96-1.361,2.066-2.505,3.32-3.436
				c1.251-0.93,2.599-1.492,4.039-1.686c2.525-0.397,4.443,0.152,5.76,1.646c1.313,1.494,1.75,3.444,1.312,5.847
				c-0.302,1.683-0.847,3.191-1.634,4.528c-0.79,1.337-1.759,2.523-2.909,3.555c-1.151,1.035-2.44,1.91-3.867,2.63
				c-1.429,0.719-2.901,1.328-4.417,1.824c-0.281,0.096-0.666,0.396-1.154,0.903c-0.489,0.504-0.69,1.073-0.605,1.707
				c0.144,0.625,0.288,1.164,0.436,1.611c0.15,0.451,0.399,0.886,0.749,1.308c0.656,0.967,1.473,1.59,2.447,1.869
				c0.977,0.279,2.004,0.29,3.083,0.026c1.596-0.333,3.055-1.041,4.375-2.126c1.32-1.085,2.482-2.355,3.49-3.81
				c1.005-1.454,1.889-2.962,2.646-4.53c0.757-1.568,1.4-3.002,1.929-4.305c0.182-0.375,0.458-0.603,0.83-0.682
				c0.372-0.079,0.728-0.055,1.067,0.075c0.339,0.131,0.606,0.375,0.8,0.728c0.193,0.357,0.203,0.75,0.027,1.185
				c-0.663,1.613-1.432,3.314-2.306,5.102c-0.872,1.786-1.892,3.478-3.057,5.069c-1.163,1.595-2.498,3.003-4.002,4.231
				c-1.507,1.228-3.229,2.06-5.163,2.495c-1.646,0.397-3.304,0.386-4.972-0.036C102.666,70.372,101.245,69.479,100.063,68.11z
				 M102.603,53.613c-0.197,0.73-0.171,1.357,0.077,1.881c0.245,0.524,0.851,0.663,1.813,0.416c2.006-0.798,3.866-1.883,5.588-3.257
				c1.72-1.373,2.746-3.227,3.081-5.557c0.154-1.017,0.019-1.921-0.411-2.714c-0.427-0.792-1.269-1.047-2.519-0.761
				c-1.812,0.478-3.368,1.668-4.665,3.571C104.267,49.098,103.28,51.237,102.603,53.613z"/>
		</g>
	</g>
	<g>
		<path fill="#27262D" d="M204.862,185.576c-2.787,0.31-5.697,0.643-8.729,1.002c-3.034,0.359-6.089,0.775-9.163,1.241
			c-3.07,0.468-6.11,0.977-9.117,1.534c-3.003,0.556-5.884,1.159-8.634,1.81c-2.703,0.628-5.262,1.443-7.674,2.447
			c-2.413,1.003-4.391,2.305-5.938,3.903c-1.091,1.15-1.866,2.474-2.326,3.965c-0.456,1.493-0.276,3.01,0.541,4.549
			c0.225,0.497,0.234,0.942,0.023,1.336c-0.21,0.394-0.526,0.686-0.947,0.879c-0.422,0.189-0.862,0.24-1.321,0.148
			c-0.458-0.09-0.8-0.383-1.025-0.879c-1.229-2.312-1.487-4.598-0.78-6.861c0.708-2.261,1.933-4.237,3.677-5.924
			c1.9-1.877,4.178-3.374,6.837-4.488c2.662-1.118,5.452-2.009,8.376-2.676c2.754-0.651,5.644-1.262,8.672-1.827
			c3.029-0.566,6.089-1.073,9.173-1.515c3.085-0.443,6.145-0.846,9.179-1.203c3.031-0.358,5.967-0.703,8.806-1.035
			c0,0,1.715-0.29,1.871,1.449C206.568,185.778,204.862,185.576,204.862,185.576z"/>
	</g>
</g>
</svg>
